<?xml version="1.0" standalone="no"?>
<!DOCTYPE svg PUBLIC "-//W3C//DTD SVG 20010904//EN"
 "http://www.w3.org/TR/2001/REC-SVG-20010904/DTD/svg10.dtd">
<svg version="1.0" xmlns="http://www.w3.org/2000/svg"
 width="194.000000pt" height="190.000000pt" viewBox="0 0 194.000000 190.000000"
 preserveAspectRatio="xMidYMid meet">

<g transform="translate(0.000000,190.000000) scale(0.100000,-0.100000)"
fill="#000000" stroke="none">
<path d="M0 950 c0 -934 0 -950 19 -950 18 0 19 2 5 28 -12 23 -14 160 -14
892 0 846 1 866 20 898 11 18 34 41 52 52 32 19 52 20 896 20 940 0 895 3 941
-56 l21 -27 0 47 0 46 -970 0 -970 0 0 -950z"/>
<path d="M375 1604 c-73 -38 -99 -84 -93 -166 3 -47 10 -64 34 -89 52 -56 122
-73 187 -45 105 44 136 170 63 254 -52 60 -129 78 -191 46z"/>
<path d="M1220 1171 c-50 -16 -86 -40 -132 -87 l-48 -48 0 62 0 62 -135 0
-135 0 0 -460 0 -460 140 0 140 0 0 253 c0 324 13 382 92 423 40 21 127 18
165 -6 62 -37 66 -63 71 -383 l4 -287 140 0 139 0 -3 343 c-3 325 -5 345 -26
402 -30 81 -67 125 -137 160 -51 26 -71 30 -155 32 -52 1 -106 -1 -120 -6z"/>
<path d="M300 700 l0 -460 140 0 140 0 0 460 0 460 -140 0 -140 0 0 -460z"/>
<path d="M1925 10 c-3 -5 -1 -10 4 -10 6 0 11 5 11 10 0 6 -2 10 -4 10 -3 0
-8 -4 -11 -10z"/>
</g>
</svg>
